<svg id="Layer_1" data-name="Layer 1" xmlns="http://www.w3.org/2000/svg" viewBox="0 0 268.61 86.86"><defs><style>.cls-1{fill:#fff;}</style></defs><title>ludwig_logo</title><path class="cls-1" d="M93,43.84a5.79,5.79,0,0,0,2.66,2.25,56.13,56.13,0,0,1-2.07,7.59,39.25,39.25,0,0,1-2.69,6.24c-1.42,2.23-9.89,3.08-8.14-2.12,1.1-3.28,3.5-12,4.29-15s1.76-8.18-2.79-7.46-8.16,1.9-10.68,3.83S70,42.85,71.57,44.05,73.92,46,73.92,46c0,1.64-.8,3.72-2.7,9.07s-3.25,11.21.42,13.7,11,1.83,13.79.66,4.4-1.92,4.4-1.92S89,70,90.9,70.64s8,0.78,11.6-2,4.66-5.15,4.73-6.08c0.17-2.09-2.5-1.8-2.81-3.29s4.46-16.37,5.41-18.9,0.33-5.06-2.64-4.77c-2.05.19-7.06,0.42-10.36,2.79S91.8,42,93,43.84Z"/><path class="cls-1" d="M117.4,70.15c8.07,1.45,11.29-1.74,11.29-1.74s1.71,2.54,4.06,2.55,10.19,0.34,13.5-4.41,5-7.13,3.48-7.58-3.77.87-4.39,0.28c0.26,0.25-1.25-1.3.34-6.4C146.79,49.27,155,23.31,156,21.46c3-5.64,1.29-8.33-1.84-8.35s-6.74,0-10.67,2.34-5.67,5.19-3.95,6.39c1.48,1,3.6.16,3.29,1.65s-4.76,14.73-4.76,14.73-7.35-3.9-13.63-1.7a21.47,21.47,0,0,0-13.86,15C108.35,59.24,111.44,69.09,117.4,70.15Zm9.66-23.94c3.62-3.56,8.31-2,7.83,1.22a68.2,68.2,0,0,1-3.18,11.46c-1.11,2.67-8,3.68-8.78-.78A13.62,13.62,0,0,1,127.06,46.21Z"/><path class="cls-1" d="M153.72,43.64c-0.32,2.38,3.13,2.4,3,3a63.33,63.33,0,0,1-1.75,6.84C154,56.15,150,64.32,153,67s5.78,4.93,12.21,3.47A50,50,0,0,0,175.73,67s1.4,2.39,7.83,2.86,23.19,1,25.17-21.79c0.94-10.89-5-12.53-9.68-11.21-2.87.81-4.2,5.3-2.38,7.29a6.58,6.58,0,0,0,4.38,2.4s0.18,6.46-1.29,9.08c-1.58,2.83-5.51,6.23-9.44,6.22-3.76,0-5.16-1.81-4-8.65s1.86-11,2.25-12.95c0.8-4-.63-5.56-4.68-5.23-7.06.57-12.1,5.89-12.11,8.14s3.12,3,3.91,2.84-0.33,3.58-.65,5.81-1.77,9.23-4,9.81c-2.63.71-6,0-5.63-3.59s2.55-10.11,4.29-14.73,1.91-8-3.57-7.76S154.1,40.82,153.72,43.64Z"/><path class="cls-1" d="M211.92,71.13c4.89-.3,14.43-3.52,14.45-7.24,0-2.53-3.75-2-3.59-3.29s4.13-17.65,4.94-20.24c1.27-4-.92-4.47-5.94-3.74S211.42,39.25,211.25,43c-0.15,3.35,2.82,2.7,2.49,3.88s-4,14.73-4.78,17.41S207.37,71.41,211.92,71.13Z"/><path class="cls-1" d="M222.26,33.34c4.39,0.32,7.69-2.5,8.34-7.41,0.61-4.62-2.79-6.71-6.71-6.73a7.66,7.66,0,0,0-7.55,7.11C216.17,30.36,218.2,33.05,222.26,33.34Z"/><path class="cls-1" d="M263.79,36.19c-3-.16-5.8,2.36-5.8,2.36S252.2,35,247,36s-15.22,4.56-17.63,17.5,2.4,14.21,4.48,16.1c3.12,2.84,11.28,2.28,11.28,2.28s0,3.58-9.58,3.54l-29.34-.09L203.8,86.73l25,0.1c9.72,0,22.41.54,26.52-6.15,3.29-5.36,8.71-22.6,10.79-30.63S271.47,36.6,263.79,36.19ZM253.56,49.26a75.48,75.48,0,0,1-3.81,11.3c-1.9,3.87-7.53,1.61-7.68-2.56-0.12-3.69.86-8,3.34-10.56C250.6,42.1,254.82,46,253.56,49.26Z"/><path class="cls-1" d="M122.58,75l-49.26-.16A23,23,0,0,1,61.43,71c-1.62-1-4.44-3.13-7.6-5.35a15.91,15.91,0,0,0,1.36-2c6.16-10.55,15-34.19,17.57-41.47s8-12.93,13.54-13.35S93,9.14,94.59,12.27c1.67,3.37-.49,5.06-0.49,5.06-3.12-2.84-13.63-2.61-13.81,5s7.16,8.46,10.31,8.38c5.33-.13,9.05-3.51,11.48-9.78C104.61,14.4,104,6.65,98.54,3.2A24.4,24.4,0,0,0,67,9.63C59,20,55.23,32.79,51.2,41.58,48.79,46.84,46,53.74,42.63,59l-0.43-.19c-6.26-2.26-17.5-4.36-26.63-3.53C6.15,56.15,0,59.39,0,65.65c0,8.19,11.7,12.7,21,12.45a63.49,63.49,0,0,0,23.29-5.4c4.13,3.57,7.65,7,10.4,8.36,6.57,3.16,5.61,5.07,27.88,5.33,24.61,0.28,35.59,0,35.59,0h2.05Zm-87-8.8C29.43,69,27,69.38,24.6,69.32c-15-.36-17.22-6.58-0.76-6.71a22.89,22.89,0,0,1,11.75,3.62h0Z"/></svg>